<?xml version="1.0" encoding="UTF-8" standalone="no"?>
<!-- Created with Inkscape (http://www.inkscape.org/) -->

<svg
   width="212.09079mm"
   height="25.144785mm"
   viewBox="0 0 212.09079 25.144785"
   version="1.1"
   id="svg1"
   inkscape:export-filename="image.svg"
   inkscape:export-xdpi="96"
   inkscape:export-ydpi="96"
   xmlns:inkscape="http://www.inkscape.org/namespaces/inkscape"
   xmlns:sodipodi="http://sodipodi.sourceforge.net/DTD/sodipodi-0.dtd"
   xmlns="http://www.w3.org/2000/svg"
   xmlns:svg="http://www.w3.org/2000/svg">
  <sodipodi:namedview
     id="namedview1"
     pagecolor="#ffffff"
     bordercolor="#000000"
     borderopacity="0.25"
     inkscape:showpageshadow="2"
     inkscape:pageopacity="0.0"
     inkscape:pagecheckerboard="0"
     inkscape:deskcolor="#d1d1d1"
     inkscape:document-units="mm">
    <inkscape:page
       x="1.3005665e-15"
       y="0"
       width="212.09081"
       height="25.144785"
       id="page2"
       margin="0"
       bleed="0" />
  </sodipodi:namedview>
  <defs
     id="defs1">
    <clipPath
       clipPathUnits="userSpaceOnUse"
       id="clipPath4">
      <rect
         style="fill:none;stroke-width:0.264583"
         id="rect5"
         width="210.99756"
         height="23.687117"
         x="-0.72883439"
         y="100.94356" />
    </clipPath>
  </defs>
  <g
     inkscape:label="Calque 1"
     inkscape:groupmode="layer"
     id="layer1"
     transform="translate(1.0932514,-99.121475)">
    <path
       style="font-size:12.7px;font-family:SpaceX;-inkscape-font-specification:SpaceX;stroke-width:0.264583"
       d="m 9.1861729,109.403 v 0 H 8.0389561 3.090421 q 0.1054199,-0.41548 0.3782715,-0.73794 0.2728515,-0.32246 0.7441406,-0.5085 0.471289,-0.18603 1.1782226,-0.18603 h 2.6479004 1.1472168 2.9951661 q 0.737939,0 1.289844,0.22324 0.558105,0.22324 0.861962,0.5519 0.310059,0.32867 0.310059,0.65733 z m 3.4044431,1.99057 v 0 q 0.861963,0 1.351856,0.21705 0.489892,0.21704 0.694531,0.62011 0.204639,0.40308 0.204639,0.96118 v 1.0294 q 0,0.5581 -0.235645,1.02319 -0.229443,0.45889 -0.750342,0.73174 -0.514697,0.27285 -1.37666,0.27285 H 9.4404209 8.6838779 5.2980382 q -0.7317383,0 -1.2898438,-0.22324 -0.5519043,-0.22324 -0.8619629,-0.5519 -0.3100585,-0.32867 -0.3100585,-0.65733 h 5.8477049 0.756543 3.1129881 v -1.99057 H 5.2732335 q -1.1410156,0 -1.6495117,-0.37208 -0.5022949,-0.37827 -0.576709,-1.0604 z m 13.636377,-3.42304 v 0 q 0.855761,0 1.43247,0.27285 0.576709,0.27285 0.861963,0.73794 0.291455,0.45889 0.291455,1.01699 v 0.79995 q 0,0.55811 -0.291455,1.01699 -0.285254,0.45889 -0.861963,0.73174 -0.576709,0.27285 -1.43247,0.27285 h -6.82749 v 3.42925 h -2.523877 v -4.85552 h 8.880078 q 0.297656,0 0.5333,-0.20463 0.235645,-0.21084 0.235645,-0.5085 v -0.57051 q 0,-0.29145 -0.235645,-0.49609 -0.235644,-0.21084 -0.5333,-0.21084 h -8.880078 v -1.43247 h 1.010791 1.513086 z M 68.773234,122.134 v 0 q -1.079004,0.093 -3.044776,0.17364 -1.965771,0.0806 -4.55166,-0.006 -2.585888,-0.0806 -5.525244,-0.4837 -2.933154,-0.39687 -5.959326,-1.27124 -3.026172,-0.86816 -5.87251,-2.35644 -2.846337,-1.48828 -5.246191,-3.75171 h -7.956103 l 1.240234,-1.32705 h 5.444629 q -1.457275,-1.64951 -2.59209,-3.7083 l 1.500684,-1.85415 q 0.446484,0.60151 0.917773,1.26504 0.905371,1.30224 2.06499,2.75332 1.165821,1.45107 2.796729,2.90835 1.630908,1.45727 3.937744,2.78432 2.306836,1.32705 5.494238,2.38745 3.193604,1.06661 7.478613,1.71773 4.28501,0.65732 9.872266,0.76894 z M 48.979091,109.403 v 0 h -2.461865 q 0.179834,-0.62632 0.79375,-1.0294 0.620117,-0.40307 1.568897,-0.40307 h 2.889746 1.184423 2.957959 q 0.731739,0 1.283643,0.22324 0.558105,0.21704 0.868164,0.5519 0.310059,0.32867 0.310059,0.65733 h -5.419825 -0.948779 -0.235644 z m 2.790528,5.41362 v 0 h 1.184423 5.419825 q 0,0.32866 -0.310059,0.65733 -0.310059,0.32866 -0.868164,0.5519 -0.551904,0.22324 -1.283643,0.22324 h -2.957959 -1.184423 -2.889746 q -0.73794,0 -1.283643,-0.24804 -0.539502,-0.25425 -0.837158,-0.67593 -0.297656,-0.42168 -0.297656,-0.93638 v -2.99517 h 2.517675 v 3.42305 z m 16.9416,-6.84609 v 0 q 0.465087,0 0.830957,0.15503 0.37207,0.14883 0.632519,0.37827 0.260449,0.22944 0.396875,0.47129 0.136426,0.24184 0.136426,0.42788 H 60.141199 v -1.43247 z m -6.052344,4.85552 v 0 1.99057 h 8.049121 q 0,0.31626 -0.241846,0.65112 -0.241845,0.32867 -0.68833,0.55811 -0.446484,0.22324 -1.066601,0.22324 h -8.57002 v -0.71933 -0.71314 -1.99057 -0.71934 -0.71314 h 8.390186 v 1.43248 z m 17.295071,0.85576 v 0 q 1.00459,-0.78135 2.06499,-1.47588 l 5.475635,4.04316 h -4.092773 z m -0.855761,-3.62769 v 0 q -1.184424,0.70073 -2.176612,1.37046 l -4.644677,-3.45405 h 3.999755 z m -7.001123,6.19497 v 0 q 0,0 0.5333,-0.5209 0.539502,-0.5271 1.612305,-1.41386 1.079004,-0.89297 2.685107,-2.00918 1.612305,-1.11621 3.757911,-2.31924 2.151806,-1.20923 4.830712,-2.36885 2.685108,-1.15962 5.903516,-2.127 3.218408,-0.97358 6.970117,-1.61851 3.75791,-0.64492 8.04292,-0.81855 0,0 -1.12241,0.14883 -1.12241,0.14262 -3.06958,0.51469 -1.94717,0.36587 -4.471047,1.01079 -2.523877,0.64493 -5.370215,1.63711 -2.846338,0.98599 -5.760889,2.38125 -2.91455,1.38907 -5.636865,3.24942 -2.722314,1.86035 -4.998144,4.254 z m 28.568798,-1.43247 v 0 h 8.85527 v 0 q 0,0.31626 -0.24185,0.65112 -0.24184,0.32867 -0.68833,0.55811 -0.44648,0.22324 -1.0666,0.22324 h -6.85849 -2.52388 v -1.43247 -5.41362 -1.43247 h 0.15503 q 0.948779,0 1.457275,0.24804 0.514695,0.24185 0.713135,0.65113 0.19844,0.40928 0.19844,0.90537 z m 48.6854,7.31738 v 0 q -1.07901,0.093 -3.04478,0.17364 -1.96577,0.0806 -4.55166,-0.006 -2.58589,-0.0806 -5.52524,-0.4837 -2.93316,-0.39687 -5.95933,-1.27124 -3.02617,-0.86816 -5.87251,-2.35644 -2.84634,-1.48828 -5.24619,-3.75171 h -7.9561 l 1.24023,-1.32705 h 5.44463 q -1.45728,-1.64951 -2.59209,-3.7083 l 1.50068,-1.85415 q 0.44649,0.60151 0.91778,1.26504 0.90537,1.30224 2.06499,2.75332 1.16582,1.45107 2.79672,2.90835 1.63091,1.45727 3.93775,2.78432 2.30683,1.32705 5.49424,2.38745 3.1936,1.06661 7.47861,1.71773 4.28501,0.65732 9.87227,0.76894 z m -12.77442,-12.47055 v 0 q 0,-0.47129 0.24185,-0.84956 0.24184,-0.38448 0.74414,-0.61392 0.50229,-0.22944 1.27124,-0.22944 h 0.26045 v 6.41821 q 0,0.5147 -0.29766,0.93638 -0.29765,0.42168 -0.84336,0.67593 -0.5395,0.24804 -1.27744,0.24804 h -7.01972 q -0.74414,0 -1.28985,-0.24804 -0.5395,-0.25425 -0.83716,-0.67593 -0.29765,-0.42168 -0.29765,-0.93638 v -6.41821 h 0.25425 q 0.84956,0 1.34565,0.22944 0.49609,0.22944 0.70693,0.61392 0.21084,0.38447 0.21084,0.85576 v 5.14697 h 6.82749 z m 14.43013,-0.0868 v 0 q 0,-0.44028 0.22944,-0.80615 0.23565,-0.36587 0.71314,-0.58291 0.48369,-0.21704 1.22783,-0.21704 h 0.34726 v 8.27856 h -1.12241 q -1.35185,0 -2.45566,-0.90537 l -5.76709,-5.10976 v 6.01513 h -2.51768 v -8.27856 h 1.13482 q 1.33945,0 2.44326,0.89297 l 5.76709,5.06015 z m 7.46001,-0.17363 v 0 h -2.46186 q 0.17983,-0.62632 0.79375,-1.0294 0.62012,-0.40307 1.56889,-0.40307 h 2.88975 1.18442 2.95796 q 0.73174,0 1.28365,0.22324 0.5581,0.21704 0.86816,0.5519 0.31006,0.32867 0.31006,0.65733 h -5.41983 -0.94877 -0.23565 z m 2.79053,5.41362 v 0 h 1.18442 5.41983 q 0,0.32866 -0.31006,0.65733 -0.31006,0.32866 -0.86816,0.5519 -0.55191,0.22324 -1.28365,0.22324 h -2.95796 -1.18442 -2.88975 q -0.73793,0 -1.28364,-0.24804 -0.5395,-0.25425 -0.83716,-0.67593 -0.29765,-0.42168 -0.29765,-0.93638 v -2.99517 h 2.51767 v 3.42305 z m 17.79735,-6.84609 v 0 h 2.51768 v 8.27856 h -0.12402 q -0.95498,0 -1.47588,-0.24804 -0.5209,-0.24805 -0.71934,-0.66353 -0.19844,-0.41548 -0.19844,-0.91777 v -1.5937 h -6.82128 v 3.42304 h -2.52388 v -8.27856 h 2.52388 v 3.42304 h 6.82128 z m 13.6798,0 v 0 q 0.46508,0 0.83095,0.15503 0.37207,0.14883 0.63252,0.37827 0.26045,0.22944 0.39688,0.47129 0.13642,0.24184 0.13642,0.42788 h -10.56679 v -1.43247 z m -6.05235,4.85552 v 0 1.99057 h 8.04912 q 0,0.31626 -0.24184,0.65112 -0.24185,0.32867 -0.68833,0.55811 -0.44649,0.22324 -1.0666,0.22324 h -8.57002 v -0.71933 -0.71314 -1.99057 -0.71934 -0.71314 h 8.39018 v 1.43248 z m 15.73238,-3.42305 v 0 h -1.14722 -4.94853 q 0.10542,-0.41548 0.37827,-0.73794 0.27285,-0.32246 0.74414,-0.5085 0.47129,-0.18603 1.17822,-0.18603 h 2.6479 1.14722 2.99516 q 0.73794,0 1.28985,0.22324 0.5581,0.22324 0.86196,0.5519 0.31006,0.32867 0.31006,0.65733 z m 3.40444,1.99057 v 0 q 0.86196,0 1.35186,0.21705 0.48989,0.21704 0.69453,0.62011 0.20464,0.40308 0.20464,0.96118 v 1.0294 q 0,0.5581 -0.23565,1.02319 -0.22944,0.45889 -0.75034,0.73174 -0.5147,0.27285 -1.37666,0.27285 h -3.03857 -0.75655 -3.38584 q -0.73173,0 -1.28984,-0.22324 -0.5519,-0.22324 -0.86196,-0.5519 -0.31006,-0.32867 -0.31006,-0.65733 h 5.8477 0.75655 3.11298 v -1.99057 h -7.28017 q -1.14102,0 -1.64951,-0.37208 -0.5023,-0.37827 -0.57671,-1.0604 z"
       id="text1"
       clip-path="url(#clipPath4)"
       aria-label="SPACEX LAUNCHES" />
    <rect
       style="fill:none;stroke-width:0.264583"
       id="rect6"
       width="212.09081"
       height="25.144785"
       x="-1.0932515"
       y="99.121468" />
  </g>
</svg>
