<?xml version="1.0" encoding="UTF-8" standalone="no"?>
<svg 
  version="1.1" 
  xmlns="http://www.w3.org/2000/svg" 
  xmlns:xlink="http://www.w3.org/1999/xlink" 
  xmlns:svg="http://www.w3.org/2000/svg"
  xmlns:rdf="http://www.w3.org/1999/02/22-rdf-syntax-ns#"
  xmlns:cc="http://creativecommons.org/ns#"
  xmlns:dc="http://purl.org/dc/elements/1.1/"
  viewBox="0 0 768 768"
  width="768"
  height="768"
>
<style>svg {background-color: white; }</style>"
<metadata id="metadata1">
Created by https://svgstud.io and licensed under CC-BY-SA 4.0 license. Please attribute https://svgstud.io
</metadata>
<metadata id="prompt">
launch space X
</metadata>
<metadata id="version">
7
</metadata>
<metadata id="metadata2">
<rdf:RDF>
<cc:Work
    rdf:about="">
    <cc:license
    rdf:resource="http://creativecommons.org/licenses/by-sa/4.0/" />
    <dc:creator>
        <cc:Agent>
            <dc:title>https://svgstud.io</dc:title>
        </cc:Agent>
    </dc:creator>
</cc:Work>
<cc:License
    rdf:about="http://creativecommons.org/licenses/by-sa/4.0/">
    <cc:permits
    rdf:resource="http://creativecommons.org/ns#Reproduction" />
    <cc:permits
    rdf:resource="http://creativecommons.org/ns#Distribution" />
    <cc:requires
    rdf:resource="http://creativecommons.org/ns#Notice" />
    <cc:requires
    rdf:resource="http://creativecommons.org/ns#Attribution" />
    <cc:permits
    rdf:resource="http://creativecommons.org/ns#DerivativeWorks" />
    <cc:requires
    rdf:resource="http://creativecommons.org/ns#ShareAlike" />
</cc:License>
</rdf:RDF>
</metadata>
<metadata id="uid">
7dbd8c0a110661807fad7915b9104b5944d85b800e4c4955ee14cab219fae50e
</metadata>
<path stroke="none" fill="black" fill-rule="evenodd" d="M384.76,768.00C46.38,768.00 46.38,768.00 40.62,764.53C37.46,762.63 33.43,759.89 31.68,758.45C29.93,757.01 25.40,752.84 21.61,749.17C17.82,745.50 12.31,738.84 9.37,734.37C6.44,729.90 3.13,724.13 2.02,721.54C0.77,718.64 0.00,714.63 0.00,711.07C0.00,705.31 0.00,705.31 19.25,704.62C29.84,704.25 50.42,704.04 65.00,704.16C79.58,704.28 96.22,704.63 102.00,704.94C107.78,705.25 112.05,705.79 111.50,706.14C110.95,706.50 106.90,707.48 102.50,708.34C98.10,709.19 90.67,710.16 86.00,710.49C81.33,710.82 75.30,711.58 72.61,712.18C68.48,713.10 68.01,713.43 69.57,714.30C70.69,714.92 80.92,715.36 95.46,715.41C108.68,715.45 127.42,715.08 137.10,714.60C146.78,714.11 155.98,714.03 157.55,714.42C159.76,714.98 160.07,715.34 158.95,716.05C158.15,716.55 154.12,717.66 150.00,718.53C145.88,719.40 141.38,720.36 140.00,720.66C137.50,721.22 137.50,721.22 140.00,722.18C141.38,722.71 145.20,723.14 148.50,723.14C151.80,723.14 156.75,722.44 159.50,721.59C162.25,720.73 169.08,719.50 174.67,718.85C182.56,717.93 188.94,717.93 203.17,718.87C213.25,719.54 224.88,720.56 229.00,721.13C233.12,721.70 236.69,722.36 236.92,722.59C237.15,722.81 237.06,723.27 236.73,723.61C236.40,723.94 231.03,724.81 224.81,725.55C218.59,726.29 209.68,727.66 205.00,728.60C199.82,729.64 191.72,730.31 184.25,730.33C173.16,730.35 172.00,730.52 172.00,732.14C172.00,733.12 171.11,734.41 170.02,734.99C168.93,735.57 162.75,736.71 156.27,737.52C149.80,738.32 144.07,738.99 143.55,738.99C143.03,739.00 143.10,739.50 143.72,740.12C144.50,740.90 149.98,741.05 162.17,740.62C171.70,740.28 190.86,739.72 204.74,739.38C218.61,739.04 229.74,738.39 229.47,737.95C229.19,737.50 226.51,736.63 223.51,736.00C220.52,735.38 217.04,734.04 215.78,733.01C213.50,731.16 213.50,731.16 216.00,730.21C217.38,729.70 224.25,728.74 231.27,728.09C239.92,727.28 252.68,727.12 270.77,727.60C288.44,728.06 297.74,728.67 298.21,729.40C298.61,730.02 302.78,730.65 307.73,730.84C312.58,731.03 322.40,730.47 329.56,729.59C336.72,728.72 350.21,727.99 359.54,727.99C368.87,727.98 387.07,728.49 400.00,729.12C421.71,730.18 423.90,730.46 428.80,732.78C432.88,734.70 436.26,735.40 443.43,735.77C448.56,736.04 455.40,735.90 458.63,735.46C464.50,734.66 464.50,734.66 458.07,733.44C454.53,732.76 445.76,731.66 438.57,730.98C430.15,730.18 424.97,729.24 424.00,728.32C423.18,727.55 421.63,726.31 420.57,725.59C418.95,724.48 423.78,724.15 451.24,723.53C469.17,723.12 486.01,723.06 488.67,723.40C491.33,723.73 508.20,724.47 526.18,725.03C546.06,725.66 564.46,726.79 573.18,727.92C583.07,729.20 589.04,729.52 592.50,728.95C595.25,728.49 611.64,728.09 628.92,728.06C646.20,728.03 660.08,727.75 659.77,727.44C659.46,727.13 655.23,726.25 650.36,725.48C645.48,724.72 630.48,722.96 617.00,721.57C603.52,720.18 586.55,718.59 579.29,718.04C572.02,717.49 547.94,716.58 525.79,716.02C503.63,715.45 471.10,714.26 453.50,713.36C427.90,712.05 411.15,711.86 369.80,712.39C322.36,713.00 316.67,713.26 300.80,715.51C286.95,717.48 279.41,717.97 263.00,717.97C251.72,717.98 236.57,717.35 229.33,716.58C222.09,715.82 215.38,714.75 214.42,714.22C212.81,713.31 212.84,713.16 214.76,712.13C215.90,711.52 219.91,710.59 223.67,710.07C227.43,709.55 238.38,708.64 248.00,708.04C257.62,707.43 277.88,706.52 293.00,706.00C308.12,705.48 324.77,704.41 330.00,703.62C335.23,702.83 342.65,701.86 346.50,701.46C353.50,700.74 353.50,700.74 349.50,699.58C345.50,698.43 345.50,698.43 351.50,696.27C354.80,695.08 360.20,693.58 363.50,692.94C366.80,692.30 374.23,689.97 380.00,687.77C387.40,684.94 392.56,683.62 397.50,683.30C404.50,682.84 404.50,682.84 399.20,688.04C396.29,690.90 394.12,693.46 394.39,693.73C394.66,693.99 397.24,693.61 400.11,692.87C404.22,691.82 405.43,691.80 405.76,692.77C405.98,693.45 406.84,694.00 407.67,694.00C408.50,694.00 413.62,691.71 419.07,688.92C427.08,684.80 431.08,681.85 440.09,673.42C448.17,665.85 453.18,662.03 458.45,659.43C462.43,657.46 467.56,655.60 469.84,655.29C472.99,654.87 473.99,655.07 473.96,656.12C473.94,656.88 472.60,659.05 470.98,660.94C469.36,662.83 468.19,664.52 468.37,664.70C468.55,664.89 473.70,662.81 479.82,660.08C485.93,657.36 494.01,653.30 497.78,651.06C501.54,648.83 505.16,647.00 505.83,647.00C506.72,647.00 506.64,647.80 505.53,649.95C504.69,651.57 504.00,653.37 504.00,653.95C504.00,654.53 504.38,655.00 504.85,655.00C505.31,655.00 509.67,652.00 514.53,648.34C522.94,641.99 523.24,641.63 520.93,640.73C519.53,640.19 511.57,640.03 502.18,640.36C487.14,640.89 485.89,640.80 486.20,639.22C486.38,638.28 489.36,635.37 492.83,632.75C496.74,629.79 501.41,627.33 505.14,626.24C510.29,624.75 512.07,623.54 517.58,617.75C521.13,614.04 524.71,611.00 525.54,611.00C526.38,611.00 528.66,611.67 530.60,612.48C532.55,613.29 533.86,614.42 533.51,614.98C533.17,615.54 532.40,616.00 531.81,616.00C531.22,616.00 526.59,617.82 521.51,620.05C516.44,622.27 511.16,625.31 509.79,626.80C508.42,628.28 506.99,630.35 506.63,631.38C506.03,633.06 506.35,633.20 509.43,632.70C511.34,632.39 516.50,630.33 520.88,628.12C525.27,625.91 531.08,622.50 533.80,620.55C536.52,618.60 539.66,617.00 540.79,617.00C541.91,617.00 545.24,619.05 548.17,621.56C551.10,624.07 556.29,627.46 559.71,629.09C563.13,630.73 566.18,632.49 566.50,633.00C566.82,633.52 570.88,636.01 575.53,638.54C580.17,641.08 584.22,643.55 584.53,644.05C584.83,644.54 582.81,646.57 580.04,648.57C577.27,650.56 575.00,652.60 575.00,653.09C575.00,653.59 576.91,653.99 579.25,653.98C581.59,653.96 585.52,653.48 588.00,652.91C590.48,652.34 595.09,652.17 598.25,652.53C601.41,652.90 604.00,653.53 604.00,653.95C604.00,654.36 602.20,655.51 599.99,656.50C597.79,657.50 595.48,658.93 594.85,659.68C594.23,660.43 594.00,661.33 594.35,661.68C594.70,662.03 598.82,661.51 603.52,660.53C608.80,659.42 613.75,658.97 616.52,659.35C618.99,659.69 621.00,659.56 621.00,659.08C621.00,658.59 619.42,656.30 617.50,654.00C615.58,651.70 614.00,649.43 614.00,648.96C614.00,648.50 614.56,647.75 615.25,647.31C615.94,646.86 618.08,646.50 620.00,646.50C623.32,646.50 623.48,646.34 623.20,643.36C622.97,640.94 623.52,639.74 625.59,638.11C627.06,636.95 629.26,636.00 630.48,636.00C631.70,636.00 633.43,636.82 634.33,637.82C635.24,638.81 636.26,641.06 636.61,642.82C637.09,645.22 637.78,646.00 639.42,646.00C640.62,646.00 642.14,646.54 642.80,647.20C643.46,647.86 644.00,649.42 644.00,650.68C644.00,652.01 642.95,653.64 641.46,654.62C640.06,655.53 638.45,657.16 637.88,658.23C637.31,659.30 637.02,660.36 637.25,660.59C637.48,660.81 639.78,660.61 642.35,660.13C644.93,659.65 647.23,659.56 647.47,659.95C647.70,660.33 647.01,662.10 645.93,663.88C644.84,665.66 644.22,667.54 644.54,668.06C644.86,668.58 645.97,669.00 647.02,669.00C648.07,669.00 651.26,669.92 654.12,671.05C656.98,672.17 659.94,672.85 660.70,672.56C661.75,672.16 661.83,671.55 661.04,670.08C660.47,669.01 660.00,666.84 660.00,665.26C660.00,663.68 660.63,661.52 661.41,660.46C662.76,658.61 662.94,658.60 666.44,660.27C668.43,661.22 670.76,662.00 671.61,662.00C672.80,662.00 673.01,661.32 672.53,659.12C672.09,657.13 672.40,655.74 673.54,654.60C674.45,653.69 676.55,652.25 678.22,651.39C680.98,649.96 681.63,649.97 685.66,651.51C688.09,652.44 691.39,654.30 693.00,655.66C695.40,657.67 695.82,658.65 695.34,661.06C694.79,663.81 694.95,664.00 697.84,664.00C699.87,664.00 701.28,664.66 701.96,665.93C702.53,667.00 703.00,669.51 703.00,671.51C703.00,674.56 702.10,676.09 697.44,680.98C694.38,684.18 692.27,687.05 692.75,687.35C693.23,687.64 699.95,689.27 707.68,690.96C715.41,692.66 726.18,695.54 731.62,697.37C737.05,699.20 745.33,701.41 750.00,702.28C754.67,703.16 760.64,704.16 763.25,704.50C768.00,705.12 768.00,705.12 768.00,711.36C768.00,716.56 767.36,718.93 764.15,725.55C762.03,729.92 757.75,736.68 754.64,740.58C751.53,744.47 745.28,750.80 740.75,754.64C736.21,758.48 730.39,763.06 727.82,764.81C723.14,768.00 723.14,768.00 384.76,768.00zM417.00,754.67C439.49,754.51 441.79,754.34 445.00,752.50C448.36,750.58 450.59,750.49 502.00,750.24C531.42,750.09 556.13,749.74 556.89,749.46C557.66,749.18 558.08,748.75 557.82,748.49C557.57,748.24 549.97,746.82 540.93,745.33C526.29,742.93 522.38,742.67 505.00,742.96C494.27,743.13 470.20,743.32 451.50,743.38C432.80,743.43 410.52,743.08 402.00,742.60C393.48,742.12 386.83,742.07 387.22,742.50C387.62,742.93 392.99,744.12 399.16,745.16C405.32,746.19 410.55,747.22 410.78,747.45C411.01,747.68 410.91,748.33 410.56,748.90C410.21,749.46 408.26,750.39 406.21,750.96C404.17,751.52 400.70,752.00 398.50,752.01C396.30,752.01 392.70,752.33 390.50,752.72C386.50,753.41 386.50,753.41 389.50,754.13C391.15,754.52 403.52,754.76 417.00,754.67zM278.55,753.99C285.12,753.98 296.29,753.33 303.36,752.54C310.44,751.76 316.42,750.91 316.67,750.67C316.91,750.42 313.25,749.67 308.54,749.01C303.83,748.34 296.49,748.01 292.24,748.27C287.98,748.54 280.90,749.54 276.50,750.49C272.10,751.44 268.07,752.62 267.55,753.11C266.99,753.63 271.55,754.00 278.55,753.99zM606.00,738.82C610.67,738.79 615.85,738.44 617.50,738.05C620.50,737.33 620.50,737.33 616.66,736.54C614.55,736.10 610.43,736.03 607.51,736.37C604.58,736.71 601.13,737.42 599.84,737.93C598.12,738.62 599.75,738.86 606.00,738.82zM513.17,733.00C517.34,733.00 522.16,732.72 523.88,732.38C525.59,732.03 527.00,731.43 527.00,731.04C527.00,730.66 525.91,729.75 524.58,729.04C522.55,727.96 520.97,728.03 514.83,729.50C510.80,730.47 507.07,731.65 506.55,732.13C506.00,732.63 508.81,733.00 513.17,733.00zM336.00,722.84C328.57,722.86 321.49,722.47 320.25,721.97C319.01,721.47 318.00,720.66 318.00,720.17C318.00,719.68 320.14,719.04 322.75,718.74C325.36,718.45 332.68,718.56 339.00,718.99C345.32,719.42 351.40,720.14 352.50,720.59C354.39,721.36 354.36,721.45 352.00,722.10C350.62,722.49 343.43,722.82 336.00,722.84zM167.25,707.78C145.51,708.02 134.00,707.80 134.00,707.14C134.00,706.59 136.36,705.90 139.25,705.61C142.14,705.31 152.92,704.80 163.22,704.46C173.51,704.13 187.22,704.18 193.68,704.57C203.27,705.17 204.97,705.49 202.96,706.36C201.45,707.01 187.70,707.56 167.25,707.78zM40.00,698.87C31.47,698.81 23.15,698.47 21.50,698.11C19.85,697.75 18.95,697.18 19.50,696.83C20.05,696.49 28.82,693.94 39.00,691.17C49.17,688.39 60.65,685.45 64.50,684.63C68.35,683.81 73.41,682.93 75.75,682.67C78.09,682.41 80.00,682.46 80.00,682.79C80.00,683.12 78.80,684.65 77.32,686.18C75.85,687.72 74.91,689.24 75.22,689.56C75.54,689.87 77.53,689.66 79.65,689.08C81.77,688.50 85.75,686.23 88.50,684.04C91.25,681.85 95.56,678.96 98.07,677.61C100.59,676.25 105.38,674.44 108.72,673.57C112.06,672.71 115.06,672.00 115.39,672.00C115.73,672.00 116.00,672.36 116.00,672.80C116.00,673.24 113.71,676.17 110.92,679.30C107.11,683.57 106.30,684.99 107.67,684.95C108.68,684.92 111.98,683.91 115.01,682.70C118.04,681.49 123.86,678.49 127.95,676.02C135.26,671.62 135.52,671.55 144.94,671.36C154.50,671.17 154.50,671.17 148.75,676.36C145.59,679.21 143.00,681.87 143.00,682.27C143.00,682.67 143.79,682.98 144.75,682.96C145.71,682.93 149.43,681.45 153.00,679.65C156.57,677.86 163.49,674.26 168.37,671.65C173.25,669.04 177.46,667.13 177.74,667.41C178.02,667.69 176.39,670.02 174.12,672.60C171.86,675.17 170.00,677.67 170.00,678.14C170.00,678.61 170.20,679.00 170.44,679.00C170.68,679.00 177.83,675.57 186.33,671.38C195.04,667.08 202.31,664.07 202.98,664.48C203.66,664.91 203.91,666.23 203.56,667.61C203.23,668.92 203.35,670.00 203.82,670.00C204.30,670.00 207.12,669.15 210.09,668.10C213.07,667.06 216.34,665.87 217.37,665.45C218.97,664.80 219.08,664.97 218.18,666.60C217.61,667.64 214.63,671.17 211.57,674.43C208.51,677.70 206.00,680.78 206.00,681.29C206.00,681.80 207.24,681.91 208.75,681.53C210.26,681.15 213.00,680.13 214.84,679.26C216.68,678.39 221.26,674.86 225.01,671.42C228.77,667.98 232.81,664.64 234.00,664.00C235.20,663.36 236.43,663.10 236.75,663.41C237.06,663.73 236.80,665.73 236.16,667.86C235.52,669.99 235.00,672.02 235.00,672.37C235.00,672.71 235.45,673.00 236.00,673.00C236.55,673.00 241.28,668.92 246.51,663.94C252.05,658.67 257.95,654.03 260.63,652.84C263.51,651.57 266.31,651.01 268.07,651.36C269.70,651.69 273.29,651.10 276.57,649.97C282.26,648.02 282.26,648.02 281.59,653.07C280.92,658.09 280.93,658.11 283.21,656.90C284.47,656.24 287.98,653.78 291.00,651.45C294.02,649.11 298.05,645.58 299.95,643.60C302.46,640.98 302.94,640.00 301.74,640.00C300.83,640.00 297.05,641.10 293.33,642.45C289.61,643.80 286.45,644.78 286.29,644.62C286.13,644.47 287.07,641.22 288.37,637.42C289.67,633.61 291.73,628.39 292.95,625.80C294.17,623.22 295.76,620.61 296.48,620.02C297.48,619.18 298.03,619.65 298.87,622.04C299.59,624.12 300.37,624.91 301.22,624.43C301.93,624.03 303.93,622.65 305.68,621.35C307.43,620.06 309.30,619.00 309.84,619.00C310.37,619.00 310.58,619.89 310.30,620.97C310.02,622.05 309.16,623.45 308.39,624.09C307.63,624.73 307.00,625.92 307.00,626.74C307.00,628.01 307.38,627.98 309.59,626.54C311.01,625.60 312.38,625.05 312.64,625.31C312.90,625.56 312.75,633.12 312.30,642.10C311.50,658.43 311.50,658.43 308.19,660.65C306.37,661.88 302.77,663.64 300.19,664.57C297.61,665.50 290.73,668.46 284.90,671.16C279.07,673.85 270.26,677.16 265.33,678.52C260.39,679.87 249.49,682.12 241.09,683.52C232.70,684.91 220.36,686.48 213.67,686.98C206.97,687.49 191.15,688.62 178.50,689.48C165.85,690.35 143.35,692.18 128.50,693.56C113.65,694.94 91.15,696.72 78.50,697.52C65.85,698.32 48.53,698.93 40.00,698.87zM272.59,691.00C272.08,691.00 271.85,690.82 272.08,690.59C272.31,690.37 276.55,688.51 281.50,686.47C286.45,684.43 294.10,680.95 298.50,678.75C302.90,676.54 308.45,673.40 310.83,671.77C313.20,670.14 318.38,667.32 322.33,665.51C326.27,663.70 330.85,661.95 332.50,661.61C334.15,661.28 336.17,661.43 336.99,661.96C338.23,662.75 337.85,663.57 334.74,666.75C332.68,668.86 331.00,671.13 331.00,671.79C331.00,672.46 331.38,673.00 331.84,673.00C332.30,673.00 334.73,672.38 337.24,671.63C339.75,670.87 345.72,667.89 350.51,664.99C356.44,661.41 360.68,659.57 363.76,659.22C367.46,658.80 368.15,658.96 367.48,660.10C367.03,660.87 365.35,663.19 363.75,665.25C362.14,667.31 361.03,669.00 361.28,669.00C361.52,669.00 365.09,667.44 369.22,665.53C373.35,663.63 378.60,661.77 380.89,661.40C383.18,661.04 387.02,659.43 389.42,657.84C391.83,656.25 395.70,652.88 398.02,650.36C400.94,647.20 401.88,645.54 401.05,645.03C400.39,644.62 397.97,644.66 395.67,645.12C393.38,645.57 389.37,646.61 386.77,647.42C383.71,648.37 381.83,648.54 381.43,647.89C381.09,647.33 382.07,645.07 383.61,642.85C386.40,638.81 386.40,638.81 384.17,637.13C382.02,635.51 381.95,634.92 382.22,621.47C382.50,607.50 382.50,607.50 386.00,613.00C389.50,618.50 389.50,618.50 390.00,608.16C390.50,597.83 390.50,597.83 392.92,600.41C394.26,601.84 395.70,603.00 396.12,603.00C396.54,603.00 397.48,601.76 398.21,600.25C398.93,598.74 400.15,597.50 400.91,597.50C401.68,597.50 402.90,599.23 403.63,601.34C404.36,603.45 406.32,613.10 408.00,622.80C409.67,632.49 411.81,642.01 412.77,643.96C413.72,645.91 415.36,647.66 416.40,647.85C418.18,648.18 418.26,647.73 417.64,641.35C417.27,637.58 416.68,630.34 416.33,625.25C415.98,620.16 416.08,616.00 416.56,616.00C417.03,616.00 419.12,617.67 421.21,619.70C423.29,621.74 425.00,622.96 425.00,622.40C425.00,621.85 423.66,617.60 422.02,612.95C420.38,608.30 419.03,603.76 419.02,602.86C419.01,601.91 419.73,601.28 420.75,601.36C422.15,601.47 422.56,600.56 422.80,596.75C423.02,593.45 423.54,592.00 424.53,592.00C425.31,592.00 426.64,593.04 427.47,594.31C428.30,595.58 431.26,602.44 434.05,609.56C436.84,616.68 440.24,624.40 441.59,626.73C442.95,629.06 445.01,631.47 446.17,632.09C448.07,633.11 448.23,632.99 447.77,630.86C447.49,629.56 445.63,623.19 443.63,616.69C441.64,610.20 440.02,603.45 440.04,601.69C440.09,598.50 440.09,598.50 445.10,604.00C448.27,607.48 452.09,613.54 455.49,620.50C458.44,626.55 461.15,632.66 461.49,634.07C462.10,636.53 461.78,636.76 453.93,639.34C449.42,640.83 441.96,644.10 437.36,646.60C432.76,649.11 426.30,653.15 423.00,655.58C419.70,658.01 417.00,660.45 417.00,661.00C417.00,661.55 418.02,662.00 419.27,662.00C420.52,662.00 424.85,661.08 428.90,659.96C432.94,658.84 436.43,658.10 436.64,658.31C436.86,658.52 434.76,660.82 431.99,663.41C429.22,666.00 425.48,668.74 423.67,669.49C421.86,670.25 415.23,671.15 408.94,671.50C402.65,671.84 394.51,672.54 390.85,673.05C387.20,673.57 380.00,675.59 374.85,677.56C369.71,679.52 362.80,681.77 359.50,682.56C356.20,683.34 344.05,684.68 332.50,685.54C320.95,686.40 302.95,687.98 292.51,689.05C282.06,690.12 273.10,691.00 272.59,691.00zM536.75,686.54C538.26,686.16 543.10,684.05 547.50,681.84C551.90,679.62 558.31,676.00 561.75,673.79C565.19,671.58 568.00,669.31 568.00,668.74C568.00,668.10 565.85,667.92 562.25,668.26C559.09,668.56 554.42,669.71 551.89,670.81C549.35,671.91 544.29,675.61 540.64,679.02C536.99,682.44 534.00,685.68 534.00,686.22C534.00,686.81 535.14,686.94 536.75,686.54zM556.45,686.00C556.90,686.00 559.66,684.62 562.61,682.94C565.55,681.25 568.22,679.45 568.54,678.94C568.86,678.42 568.60,678.00 567.96,678.00C567.32,678.00 565.33,678.70 563.52,679.56C561.72,680.41 559.21,682.21 557.95,683.56C556.68,684.90 556.01,686.00 556.45,686.00zM121.23,668.95C120.83,668.93 117.98,666.57 114.89,663.70C111.61,660.66 108.72,656.92 107.92,654.71C106.91,651.88 106.85,650.48 107.67,649.21C108.28,648.27 109.51,647.56 110.40,647.64C111.29,647.72 113.66,648.09 115.66,648.46C119.30,649.15 119.30,649.15 116.65,646.00C115.19,644.26 114.00,642.52 114.00,642.12C114.00,641.73 114.54,640.86 115.20,640.20C115.86,639.54 117.34,639.00 118.50,639.00C119.65,639.00 122.35,637.20 124.50,635.00C126.65,632.80 129.04,631.00 129.82,631.00C130.59,631.00 132.64,632.54 134.37,634.41C136.30,636.52 138.65,637.96 140.50,638.16C142.96,638.44 143.56,639.02 143.83,641.35C144.04,643.21 143.43,644.98 142.08,646.42C140.00,648.63 140.00,648.63 142.96,650.81C144.59,652.02 146.64,653.00 147.53,653.00C148.41,653.00 150.00,653.47 151.07,654.04C152.27,654.68 153.00,656.13 153.00,657.86C153.00,659.50 152.03,661.57 150.64,662.87C148.53,664.85 147.59,665.02 141.89,664.46C136.48,663.93 134.47,664.23 128.73,666.42C125.00,667.84 121.63,668.98 121.23,668.95zM226.00,659.58C224.02,660.47 222.21,660.31 217.25,658.82C213.66,657.73 211.00,656.36 211.00,655.60C211.00,654.87 211.90,653.12 213.01,651.72C214.11,650.31 217.91,647.10 221.44,644.58C224.97,642.06 228.98,640.00 230.36,640.00C231.73,640.00 233.58,640.72 234.45,641.60C235.33,642.48 236.66,642.96 237.40,642.68C238.14,642.39 241.06,643.23 243.87,644.53C246.69,645.84 249.00,647.39 249.00,647.97C249.00,648.55 247.54,649.67 245.75,650.44C243.96,651.22 239.35,653.34 235.50,655.15C231.65,656.97 227.38,658.96 226.00,659.58zM179.02,658.00C177.43,658.00 175.91,657.66 175.65,657.25C175.40,656.83 175.56,641.64 176.02,623.50C176.47,605.35 177.13,572.27 177.48,550.00C178.11,509.50 178.11,509.50 174.05,504.64C171.82,501.97 170.00,499.38 170.00,498.89C170.00,498.40 176.92,498.00 185.37,498.00C193.83,498.00 202.21,497.71 203.99,497.35C207.05,496.74 207.19,496.84 206.47,499.09C206.06,500.40 204.40,503.11 202.78,505.12C199.85,508.77 199.85,508.77 200.95,566.14C201.56,597.69 202.34,630.53 202.68,639.13C203.29,654.76 203.29,654.76 199.07,655.16C196.75,655.39 194.64,655.23 194.39,654.82C194.13,654.41 193.70,630.54 193.42,601.78C193.14,573.03 192.81,540.50 192.69,529.50C192.47,509.50 192.47,509.50 189.34,509.19C186.20,508.89 186.20,508.89 185.63,520.19C185.31,526.41 184.87,558.99 184.64,592.59C184.36,636.20 183.91,654.30 183.09,655.84C182.31,657.29 180.98,658.00 179.02,658.00zM319.25,656.47C317.63,656.95 317.00,656.72 317.00,655.65C317.00,654.84 317.92,646.37 319.04,636.84C320.16,627.30 322.21,612.08 323.59,603.00C324.97,593.92 326.36,584.14 326.69,581.25C327.01,578.36 326.88,575.95 326.39,575.88C325.90,575.81 323.02,575.66 320.00,575.53C316.98,575.41 311.94,574.98 308.81,574.59C303.12,573.87 303.12,573.87 295.31,589.69C288.70,603.06 287.12,605.55 285.04,605.85C283.69,606.04 280.88,605.68 278.79,605.06C276.71,604.43 275.00,603.48 275.00,602.94C275.00,602.40 276.72,598.48 278.83,594.23C280.94,589.98 283.95,583.43 285.51,579.68C288.36,572.86 288.36,572.86 285.56,570.63C282.76,568.40 282.76,568.40 292.00,544.95C297.08,532.05 305.17,511.14 309.99,498.47C314.81,485.80 319.95,471.48 321.43,466.63C322.91,461.79 323.97,456.85 323.79,455.66C323.53,453.97 322.71,454.85 319.98,459.74C318.07,463.17 316.16,465.98 315.75,465.99C315.34,465.99 315.00,457.11 315.01,446.25C315.02,435.39 315.30,424.81 315.64,422.75C316.15,419.68 316.68,419.00 318.57,419.00C319.84,419.00 321.16,419.45 321.50,420.00C321.84,420.55 323.86,421.00 325.99,421.00C328.93,421.00 330.01,421.46 330.47,422.92C330.81,423.97 330.60,428.59 330.01,433.17C329.41,437.75 328.08,448.70 327.05,457.50C326.01,466.30 324.86,476.77 324.48,480.77C323.91,486.76 324.10,488.50 325.52,490.67C327.00,492.92 327.33,497.13 327.87,520.40C328.50,547.50 328.50,547.50 334.75,547.80C341.00,548.10 341.00,548.10 340.99,510.30C340.98,489.51 340.52,467.10 339.95,460.50C339.39,453.90 338.30,444.68 337.55,440.00C336.79,435.32 335.88,428.68 335.53,425.24C334.98,419.75 335.12,418.91 336.70,418.42C337.69,418.11 339.18,417.50 340.00,417.07C340.82,416.64 341.50,415.67 341.50,414.93C341.50,414.18 340.04,413.16 338.25,412.64C335.00,411.71 335.00,411.71 335.00,379.91C335.00,358.91 334.65,347.90 333.96,347.47C333.38,347.12 332.26,347.37 331.46,348.04C330.24,349.05 330.00,354.36 330.00,380.53C330.00,411.82 330.00,411.82 325.75,412.47C323.41,412.82 320.32,413.33 318.88,413.61C317.23,413.92 316.11,413.62 315.88,412.80C315.67,412.09 315.73,356.60 316.00,289.50C316.50,167.50 316.50,167.50 319.73,162.24C322.53,157.68 323.09,155.59 323.95,146.56C324.49,140.83 325.85,131.72 326.98,126.32C328.10,120.92 330.65,111.55 332.64,105.50C334.64,99.45 338.41,90.14 341.03,84.81C343.65,79.49 348.14,71.73 351.01,67.58C353.88,63.43 358.61,57.55 361.53,54.52C365.62,50.25 367.50,49.00 369.80,49.00C372.17,49.00 374.01,50.32 378.84,55.49C382.18,59.05 387.19,65.85 389.99,70.58C392.78,75.31 396.84,83.42 398.99,88.61C401.15,93.79 404.26,102.24 405.91,107.39C407.56,112.53 409.81,121.19 410.92,126.62C412.03,132.05 413.24,140.94 413.62,146.37C414.31,156.23 414.31,156.23 411.91,155.49C410.58,155.08 408.36,154.17 406.96,153.46C405.57,152.75 400.97,151.46 396.76,150.58C392.00,149.60 384.03,149.00 375.79,149.00C364.69,149.00 360.99,149.41 353.49,151.49C348.55,152.86 344.00,153.98 343.39,153.99C342.67,154.00 342.33,151.18 342.39,145.75C342.50,137.50 342.50,137.50 338.00,137.50C333.85,137.50 333.37,137.77 331.80,141.00C330.72,143.22 329.99,147.56 329.80,152.84C329.51,161.12 329.49,161.19 326.40,162.48C324.32,163.35 322.57,165.25 321.14,168.21C319.28,172.06 319.00,174.38 319.00,186.15C319.00,193.58 319.22,199.89 319.50,200.16C319.77,200.44 324.04,200.00 329.00,199.18C338.00,197.71 338.00,197.71 338.00,187.52C338.00,181.92 338.25,177.08 338.56,176.78C338.86,176.47 342.04,177.17 345.61,178.33C351.17,180.14 352.24,180.24 353.00,179.00C353.49,178.21 354.13,177.80 354.43,178.10C354.73,178.39 355.05,202.90 355.15,232.57C355.25,262.23 355.69,305.62 356.13,329.00C356.57,352.38 357.26,373.52 357.67,376.00C358.40,380.50 358.40,380.50 358.97,376.00C359.29,373.52 359.90,404.96 360.35,445.86C360.79,486.76 361.37,520.81 361.65,521.54C361.98,522.40 361.18,522.96 359.33,523.18C357.10,523.43 356.43,524.07 356.19,526.22C355.93,528.47 356.35,529.05 358.69,529.64C361.50,530.36 361.50,530.36 358.25,531.21C356.46,531.67 355.00,532.69 355.00,533.47C355.00,534.25 355.37,535.11 355.82,535.39C356.28,535.67 359.47,536.35 362.92,536.91C366.38,537.47 369.83,538.45 370.61,539.09C371.39,539.74 372.73,542.79 373.59,545.88C374.45,548.97 375.40,552.36 375.69,553.40C376.20,555.20 375.76,555.27 367.37,554.65C362.49,554.29 357.15,554.37 355.50,554.82C353.85,555.27 352.35,556.40 352.18,557.32C351.90,558.77 352.88,559.01 359.18,559.06C363.20,559.09 368.30,559.43 370.50,559.82C373.44,560.34 374.57,561.05 374.77,562.51C374.92,563.66 373.09,566.92 370.43,570.25C365.84,576.00 365.84,576.00 359.17,575.99C355.50,575.98 351.54,575.72 350.37,575.40C349.20,575.09 347.76,573.78 347.18,572.49C346.59,571.21 345.39,566.63 344.50,562.33C343.61,558.02 342.45,554.06 341.92,553.52C341.28,552.89 340.34,552.92 339.22,553.62C338.14,554.30 337.38,556.27 337.19,558.94C337.02,561.27 337.32,565.27 337.87,567.83C338.73,571.87 338.61,572.71 336.99,574.22C335.91,575.23 334.89,577.97 334.56,580.73C334.24,583.35 333.50,587.30 332.91,589.50C332.32,591.70 331.14,596.06 330.29,599.20C329.44,602.33 329.02,605.60 329.34,606.45C329.70,607.37 331.15,608.00 332.91,608.00C334.54,608.00 336.16,607.55 336.50,607.00C336.84,606.45 337.54,606.00 338.06,606.00C338.58,606.00 339.01,607.69 339.03,609.75C339.04,611.81 338.32,620.70 337.43,629.50C336.54,638.30 335.63,646.44 335.42,647.59C335.15,649.06 333.02,650.60 328.27,652.75C324.55,654.43 320.49,656.11 319.25,656.47zM344.93,649.00C343.32,649.00 343.00,648.29 343.03,644.75C343.04,642.41 343.48,636.00 344.00,630.50C344.53,625.00 345.24,618.21 345.57,615.40C345.91,612.60 346.54,609.74 346.97,609.05C347.56,608.09 348.24,608.06 349.87,608.93C351.68,609.90 352.00,610.97 352.00,616.04C352.00,619.32 352.34,622.00 352.75,621.99C353.16,621.99 355.29,619.52 357.47,616.49C359.65,613.47 361.74,611.00 362.10,611.00C362.47,611.00 363.04,612.01 363.37,613.25C363.70,614.49 363.98,618.74 363.99,622.69C363.99,626.65 364.43,630.15 364.96,630.48C365.49,630.80 366.78,629.37 367.83,627.29C368.87,625.20 370.28,621.81 370.94,619.75C371.61,617.69 372.52,616.00 372.97,616.00C373.42,616.00 374.05,617.06 374.37,618.36C374.70,619.65 375.27,624.65 375.64,629.45C376.17,636.41 376.02,638.37 374.90,639.08C374.13,639.57 371.67,639.98 369.43,639.98C366.66,640.00 362.39,641.44 356.11,644.50C351.02,646.98 345.99,649.00 344.93,649.00zM469.17,635.00C466.66,635.00 466.27,634.68 466.72,632.96C467.01,631.84 469.08,630.04 471.31,628.96C473.55,627.88 475.97,627.00 476.69,627.00C477.41,627.00 478.00,627.48 478.00,628.08C478.00,628.67 476.68,630.47 475.08,632.08C473.15,634.00 471.13,635.00 469.17,635.00zM584.75,632.92C584.06,632.88 582.33,632.41 580.90,631.89C578.43,630.98 578.26,630.47 577.65,621.81C577.29,616.80 577.00,598.17 577.00,580.43C577.00,562.68 576.73,547.45 576.39,546.58C576.06,545.71 574.71,545.00 573.40,545.00C571.02,545.00 571.02,545.00 570.76,586.24C570.53,623.48 570.34,627.50 568.87,627.79C567.97,627.96 566.08,627.07 564.67,625.80C562.12,623.50 562.12,623.50 562.83,588.00C563.22,568.48 563.27,550.61 562.94,548.31C562.52,545.43 561.39,543.23 559.30,541.28C557.63,539.72 555.29,536.52 554.09,534.17C551.94,529.96 551.91,529.30 552.20,491.09C552.50,452.28 552.50,452.28 562.91,451.64C568.63,451.29 576.39,451.00 580.16,451.00C583.92,451.00 587.00,450.60 587.00,450.12C587.00,449.63 585.99,448.96 584.75,448.63C583.51,448.30 575.64,448.02 567.25,448.01C552.00,448.00 552.00,448.00 552.01,441.75C552.02,438.31 552.71,432.62 553.54,429.09C554.37,425.57 556.44,420.07 558.14,416.88C559.85,413.69 562.92,409.26 564.97,407.04C567.96,403.79 569.38,403.00 572.21,403.00C575.14,403.00 576.51,403.84 580.43,408.03C583.01,410.79 586.56,416.08 588.32,419.78C591.50,426.50 591.50,426.50 591.78,477.92C592.04,523.87 591.90,529.71 590.43,532.92C589.52,534.89 587.67,538.16 586.30,540.19C583.81,543.88 583.81,543.88 584.91,585.19C585.51,607.91 586.00,627.96 586.00,629.75C586.00,631.73 585.51,632.97 584.75,632.92zM282.53,598.00C283.37,598.00 284.34,597.21 284.67,596.25C285.01,595.29 287.25,589.84 289.64,584.15C292.04,578.46 294.00,573.62 294.00,573.40C294.00,573.18 293.39,573.00 292.64,573.00C291.84,573.00 289.53,577.42 287.03,583.75C284.69,589.66 282.38,594.93 281.89,595.45C281.40,595.97 281.00,596.76 281.00,597.20C281.00,597.64 281.69,598.00 282.53,598.00zM291.96,560.51C293.05,560.17 297.21,558.04 301.21,555.78C305.22,553.51 310.64,550.34 313.25,548.73C315.86,547.11 318.00,545.36 318.00,544.83C318.00,544.29 317.01,544.17 315.75,544.56C314.51,544.95 310.88,546.58 307.67,548.19C304.46,549.80 301.41,550.97 300.89,550.80C300.38,550.63 304.26,545.54 309.52,539.51C314.78,533.47 319.30,527.62 319.58,526.52C319.85,525.41 319.94,517.08 319.79,508.00C319.55,494.21 319.30,491.91 318.28,494.00C317.62,495.38 314.62,502.80 311.62,510.50C308.62,518.20 302.53,531.99 298.09,541.15C293.64,550.31 290.00,558.55 290.00,559.47C290.00,560.67 290.55,560.96 291.96,560.51zM439.84,551.00C439.33,551.00 437.80,549.90 436.45,548.55C435.10,547.20 434.00,545.45 434.00,544.67C434.00,543.89 433.44,542.79 432.75,542.24C431.89,541.55 429.18,541.93 424.09,543.45C420.01,544.67 415.67,545.47 414.44,545.23C413.21,545.00 410.73,543.29 408.93,541.43C405.81,538.21 405.63,537.60 404.93,527.78C404.53,522.13 403.90,505.35 403.54,490.50C403.18,475.65 402.45,459.23 401.92,454.00C401.28,447.69 400.16,442.82 398.58,439.50C396.21,434.50 396.21,434.50 395.70,298.50C395.36,205.15 394.86,161.64 394.12,159.75C393.05,157.00 393.05,157.00 397.77,157.01C400.63,157.02 404.51,157.96 407.58,159.38C410.37,160.69 413.62,162.97 414.79,164.46C416.93,167.18 416.93,167.18 416.55,312.34C416.35,392.18 416.14,458.12 416.09,458.87C416.02,459.99 415.71,460.01 414.48,458.98C413.64,458.28 412.66,458.00 412.31,458.36C411.96,458.71 412.92,462.71 414.46,467.25C415.99,471.79 420.51,483.82 424.51,494.00C428.51,504.18 434.11,518.05 436.96,524.83C439.82,531.61 442.84,539.47 443.68,542.29C445.16,547.28 445.14,547.47 442.99,549.21C441.77,550.19 440.36,551.00 439.84,551.00zM436.82,536.62C437.00,535.75 434.43,529.29 431.11,522.27C427.80,515.25 422.77,503.43 419.94,496.00C417.11,488.57 414.15,481.38 413.35,480.00C412.04,477.73 411.95,478.43 412.43,487.50C412.72,493.00 413.26,501.99 413.64,507.48C414.32,517.45 414.32,517.45 421.85,524.48C425.99,528.34 430.98,533.01 432.94,534.85C435.68,537.43 436.57,537.84 436.82,536.62zM571.58,533.94C578.08,533.90 581.69,533.55 580.50,533.08C579.40,532.64 574.81,532.34 570.30,532.42C565.79,532.51 561.77,532.89 561.38,533.29C560.99,533.68 565.58,533.97 571.58,533.94zM563.83,525.51C567.50,525.12 570.84,524.59 571.25,524.34C571.66,524.09 572.00,523.04 572.00,522.01C572.00,520.98 571.10,519.85 570.01,519.50C568.19,518.93 568.14,518.63 569.38,516.19C570.43,514.13 570.78,507.01 570.90,485.89C571.01,464.59 570.76,458.05 569.77,457.26C569.07,456.69 566.70,455.93 564.50,455.57C561.72,455.11 559.90,455.35 558.54,456.35C556.68,457.70 556.56,459.38 556.18,487.41C555.96,503.71 556.09,519.11 556.47,521.63C557.15,526.22 557.15,526.22 563.83,525.51zM392.58,518.00C392.35,518.00 391.85,515.12 391.47,511.60C391.10,508.08 391.23,501.89 391.76,497.85C392.72,490.61 392.73,490.71 392.87,504.25C392.94,511.81 392.81,518.00 392.58,518.00zM188.42,494.00C173.26,494.00 169.88,493.74 168.60,492.45C167.75,491.60 166.38,488.65 165.56,485.89C164.74,483.14 163.78,477.63 163.42,473.67C163.02,469.25 163.24,464.13 163.98,460.47C164.65,457.19 166.61,451.80 168.33,448.50C170.06,445.20 173.85,440.14 176.77,437.26C179.69,434.37 183.34,431.36 184.89,430.56C186.44,429.75 188.76,429.38 190.10,429.71C191.42,430.04 194.37,431.58 196.65,433.14C198.93,434.69 202.20,437.73 203.91,439.89C205.63,442.06 208.12,446.23 209.45,449.16C210.78,452.10 212.37,458.17 212.97,462.65C213.74,468.36 213.76,472.74 213.04,477.23C212.48,480.76 211.50,485.19 210.87,487.08C210.23,488.96 209.04,491.29 208.20,492.25C206.87,493.80 204.58,494.00 188.42,494.00zM182.34,477.00C189.61,477.00 193.18,476.59 194.55,475.59C196.42,474.22 196.40,474.10 193.65,471.55C190.95,469.05 190.89,468.81 192.43,466.71C193.33,465.49 195.17,462.25 196.52,459.50C198.09,456.30 198.98,452.76 198.99,449.68C199.00,447.04 198.49,443.89 197.88,442.68C197.26,441.48 195.83,439.49 194.70,438.25C193.17,436.56 191.54,436.00 188.23,436.00C185.79,436.00 182.28,436.72 180.43,437.60C178.57,438.48 175.69,441.27 174.01,443.79C172.34,446.32 170.48,450.21 169.88,452.44C169.27,454.67 168.97,460.10 169.21,464.50C169.44,468.90 170.18,473.51 170.85,474.75C171.99,476.86 172.72,477.00 182.34,477.00zM564.48,436.00C573.84,436.00 573.84,436.00 575.79,432.75C576.86,430.96 578.03,427.28 578.38,424.58C578.87,420.73 578.56,418.73 576.97,415.43C575.69,412.79 573.84,410.76 572.04,410.01C570.45,409.36 568.31,409.09 567.28,409.41C566.25,409.74 563.77,412.16 561.76,414.79C559.76,417.42 557.61,420.90 556.98,422.53C556.36,424.17 555.47,427.52 555.01,429.98C554.55,432.45 554.38,434.81 554.64,435.23C554.90,435.66 559.33,436.00 564.48,436.00zM327.31,346.00C332.38,346.00 336.28,345.51 337.33,344.75C338.87,343.62 339.01,341.30 338.77,321.50C338.50,299.50 338.50,299.50 331.50,299.56C327.65,299.60 323.49,300.18 322.25,300.85C320.11,302.01 320.00,302.66 320.00,313.93C320.00,323.82 320.26,325.89 321.58,326.39C322.45,326.73 324.23,327.00 325.52,327.00C326.82,327.00 328.15,327.44 328.48,327.97C328.81,328.50 327.83,329.22 326.29,329.55C324.76,329.89 323.02,330.31 322.44,330.48C321.86,330.65 320.85,333.70 320.19,337.26C319.54,340.82 319.00,344.24 319.00,344.87C319.00,345.62 321.78,346.00 327.31,346.00zM327.24,296.00C331.58,296.00 335.32,295.48 336.34,294.74C337.86,293.63 338.02,291.66 337.78,277.49C337.50,261.50 337.50,261.50 330.70,261.58C325.72,261.64 323.45,262.12 322.20,263.36C320.78,264.79 320.45,267.58 320.18,280.53C319.86,296.00 319.86,296.00 327.24,296.00zM322.50,259.00C323.83,259.00 329.44,258.49 334.96,257.86C340.48,257.23 345.00,256.35 345.00,255.90C345.00,255.45 343.22,254.60 341.04,254.01C337.07,252.94 337.07,252.94 337.69,236.67C338.02,227.72 337.97,218.68 337.58,216.57C336.86,212.73 336.86,212.73 331.48,213.29C328.52,213.60 324.84,214.45 323.30,215.19C320.50,216.53 320.50,216.53 320.50,233.51C320.50,250.50 320.50,250.50 325.25,250.44C328.97,250.39 330.00,250.72 330.00,251.98C330.00,253.03 328.49,253.99 325.62,254.76C323.21,255.40 320.98,256.62 320.65,257.46C320.22,258.59 320.72,259.00 322.50,259.00zM355.30,173.67C354.50,176.50 354.50,176.50 347.24,172.96C343.24,171.02 338.75,168.20 337.25,166.70C335.05,164.50 334.73,163.64 335.62,162.24C336.54,160.79 338.27,160.50 346.11,160.50C355.50,160.50 355.50,160.50 355.80,165.67C355.96,168.51 355.74,172.11 355.30,173.67zM328.64,133.99C329.66,133.98 333.43,133.04 337.00,131.90C342.23,130.23 347.15,129.72 362.25,129.27C380.85,128.71 381.00,128.69 381.00,126.46C381.00,125.22 380.34,117.98 379.54,110.36C378.73,102.74 376.91,89.77 375.49,81.55C374.08,73.33 372.47,64.61 371.93,62.17C371.38,59.74 370.48,56.90 369.93,55.87C369.38,54.84 368.31,54.00 367.56,54.00C366.80,54.00 364.21,56.20 361.79,58.89C359.37,61.58 354.83,67.58 351.71,72.23C348.59,76.87 344.51,84.02 342.65,88.11C340.78,92.20 338.04,98.92 336.56,103.03C335.07,107.14 332.60,115.00 331.07,120.50C329.53,126.00 327.94,131.29 327.53,132.25C326.97,133.56 327.26,134.00 328.64,133.99z" />

</svg>